<svg xmlns="http://www.w3.org/2000/svg" version="1.1" xmlns:xlink="http://www.w3.org/1999/xlink" xmlns:svgjs="http://svgjs.dev/svgjs" width="128" height="128" viewBox="0 0 128 128"><g transform="matrix(0.8046875,0,0,0.8046875,12.760752631578946,24.063085265755348)"><svg viewBox="0 0 95 74" data-background-color="#000000" preserveAspectRatio="xMidYMid meet" height="99" width="128" xmlns="http://www.w3.org/2000/svg" xmlns:xlink="http://www.w3.org/1999/xlink"><g id="tight-bounds" transform="matrix(1,0,0,1,-0.24049999999999727,0.09742633742918372)"><svg viewBox="0 0 95.481 73.80514732514162" height="73.80514732514162" width="95.481"><g><svg viewBox="0 0 95.481 73.80514732514162" height="73.80514732514162" width="95.481"><g><svg viewBox="0 0 95.481 73.80514732514162" height="73.80514732514162" width="95.481"><g id="textblocktransform"><svg viewBox="0 0 95.481 73.80514732514162" height="73.80514732514162" width="95.481" id="textblock"><g><svg viewBox="0 0 95.481 73.80514732514162" height="73.80514732514162" width="95.481"><g><svg viewBox="0 0 95.481 73.80514732514162" height="73.80514732514162" width="95.481"><g><svg xmlns="http://www.w3.org/2000/svg" xmlns:xlink="http://www.w3.org/1999/xlink" version="1.1" x="0" y="0" viewBox="2.5220967074509164 14.797594383257945 91.08738706361288 70.40896117229761" enable-background="new 0 0 100 100" xml:space="preserve" height="73.80514732514162" width="95.481" class="icon-icon-0" data-fill-palette-color="accent" id="icon-0"></svg></g></svg></g></svg></g></svg></g></svg></g><g></g></svg></g><defs></defs><mask id="3b663135-4432-4677-a67a-8e0beafe5fb9"><g id="SvgjsG1013"><svg viewBox="0 0 95.481 73.80514732514162" height="73.80514732514162" width="95.481"><g><svg viewBox="0 0 95.481 73.80514732514162" height="73.80514732514162" width="95.481"><g><svg viewBox="0 0 95.481 73.80514732514162" height="73.80514732514162" width="95.481"><g id="SvgjsG1012"><svg viewBox="0 0 95.481 73.80514732514162" height="73.80514732514162" width="95.481" id="SvgjsSvg1011"><g><svg viewBox="0 0 95.481 73.80514732514162" height="73.80514732514162" width="95.481"><g><svg viewBox="0 0 95.481 73.80514732514162" height="73.80514732514162" width="95.481"><g><svg xmlns="http://www.w3.org/2000/svg" xmlns:xlink="http://www.w3.org/1999/xlink" version="1.1" x="0" y="0" viewBox="2.5220967074509164 14.797594383257945 91.08738706361288 70.40896117229761" enable-background="new 0 0 100 100" xml:space="preserve" height="73.80514732514162" width="95.481" class="icon-icon-0" data-fill-palette-color="accent" id="SvgjsSvg1010"><path d="M85.365 43.225c-0.704-2.732-2.693-4.215-4.672-5.519s-1.573-2.563-1.408-3.252h1.918c1.14-1.08 1.619-0.3 1.619-0.3-0.06 1.079 0.659 1.858 1.559 2.158 1.019 3.237 2.098 2.038 2.098 2.038 0.36-0.6 1.68-0.959 1.68-0.959 0.419-0.54 0-0.719 0.18-0.599 0.18 0.12 1.918 0 1.918 0s0.6-0.48 1.919-1.619c1.559-0.6 1.499-1.679 1.379-2.398s-1.438-1.319-1.438-1.319v-0.6c-0.181-0.6-2.818-2.099-3.478-2.638 0.119-0.36-0.3-1.679-0.3-1.679-0.1-0.2-0.546-0.539-1.097-0.903l0.167-1.555c0.03-2.758 1.739-2.833 1.604-3.192-0.135-0.315-1.573 0.314-2.533 1.169-0.239-1.259 0.511-1.844 1.319-2.698-0.988-0.27-1.938 1.304-1.938 1.304s-0.041-0.314-0.341-0.719c1.05-1.305 0.345-1.125-0.284-0.72-0.674-0.629 0.675-1.035 0-1.259-0.674-0.225-0.72 0.899-0.944 1.124-0.226 0.225-0.585-0.404-0.944-0.989 0.765-1.124-0.135-0.809-0.72-0.18-0.584 0.495-0.225-1.259-0.225-1.259s-1.079 0.81-1.664 0.54c-0.18-1.799-0.225-1.214-1.259-0.63-1.034 0.18-0.674-1.169-0.72-1.753-0.674-0.18-1.034 0.81-1.528 1.664-0.944-1.349-1.754-0.45-2.114 0.179-0.27-1.753-0.943-0.404-1.438 0.135-0.405-1.484-0.945-0.135-1.305 0.27-0.809-1.439-1.573 0.629-1.979 1.439-0.405 0.809-1.259-0.405-1.259-0.405l-2.923 0.989c-3.372 1.259-4.227 4.901-4.227 6.071-0.81 0.674-1.394 2.697-1.529 3.597-1.349-0.09-2.787 1.799-2.113 3.507 0.675 1.708 0.09 3.283-0.629 3.642-3.955 1.753-2.368 5.722-2.366 5.726-1.516 0.894-2.861 1.58-3.884 1.964-2.159 0.809-4.497 2.248-9.173 1.619-2.159 0-5.846 0.539-8.993 3.327-1.619 1.439-4.946 6.476-5.936 8.544-0.359 1.438-2.338 15.107-7.014 19.784-1.08 1.349-7.015 8.723-13.58 3.147-1.799-1.799-3.688-4.677-2.518-7.733 1.079 0.269 1.708-0.45 1.798-1.439 0 0-0.359-0.81-0.09-1.438 0 0-0.45-1.17-1.349 0 0 0 0.452-0.969 1.169-1.799 0.45-0.811 0.794-1.078 0.45-2.608-0.629-0.719-2.068-1.438-2.698 0.181 0 0 1.169-1.17 1.979 0 0 0-1.169-0.091-1.439 0.449 0 0 2.069-0.271 0 1.709-1.259 1.079-1.798 2.068-1.349 3.507-0.09 0.629-1.169 5.935 2.788 10.072 1.529 1.618 10.162 7.193 17.536-3.688 4.227-10.342 6.115-17.716 7.015-18.166 0.54 1.529 0.989 2.249 1.889 3.418 0.45 0.539-2.968 5.216-4.766 5.216-0.771 0.694-1.079 2.697-0.54 4.676 0.09 2.159 0 4.138-0.629 5.037-0.27 1.078-0.45 2.157 1.079 3.507 0.18 0.809-0.09 1.709 0.809 2.429 0.899 0.719 2.068 0.448 2.788 1.618 0.629-0.18 2.877-0.36 3.417-1.17 0.989 0.09 2.428 0.36 2.608-0.448 0.18-0.811 1.349-1.529 1.619-0.36 0.27 1.169-0.18 1.979 2.068 1.979s2.877 0.539 4.316 0c0.72-0.18 2.518-0.18 2.159-2.159-0.18-1.168-0.989-0.988-1.08-1.799-0.719-0.449-1.529-0.359-2.249-0.269-0.809-0.27-3.058-0.36-4.316-2.338-1.259-1.979-2.698-4.317-2.698-4.317s-0.36-1.619 1.079-2.428c1.439-0.81 2.338-1.529 2.968-2.339 0.989-0.359 1.169 0 1.979-0.449 0.81-0.449 1.888-1.35 2.158-1.35 0.271 0 0.809 0.63 1.259-1.079 0.899-1.708 2.158-6.564 5.215-6.924 3.058-0.359 13.31 1.079 14.3 1.079l1.349-0.09c0 0 0 3.147 0.63 3.866 0.089 0.72 0.359 5.756 0 7.195-0.36 1.438-0.54 3.147-1.529 3.866-0.449 0.811 0.09 1.439 0.899 2.068 0.809 0.63 1.708 1.619 1.529 2.878 0.449 0.72 0.809 0.36 1.079 0.091 0.27-0.271-0.038 1.063 0.809 1.169 0.982 0.122 2.039 0.046 2.986-0.173l2.569-0.533c0 0 1.189-0.254 1.278-0.733 0 0-0.629-2.338 1.619 0.09 1.439 0.09 1.619 0 2.429-0.27 0 0 0.989 0.539 1.889-0.091 0 0 1.438-0.449 0.899-1.527 0 0-1.349-1.26-2.969-1.08-0.539-0.54-1.349-1.528-2.248-1.349-0.539-0.449-2.827-2.248-2.133-6.475 0 0 1.194-5.577 0-7.285 0 0-0.265 0-0.567-0.063 1.651-0.253 1.654-1.285 1.654-1.285 1.087 0.135 1.945-1.169 2.261-2.067 2.383-0.271 2.607-2.068 2.922-3.238 3.193-1.754 2.339-5.351 2.339-5.351 2.023-0.315 1.085-3.554 0.603-3.61C85.793 46.596 86.07 45.957 85.365 43.225zM35.295 81.446c-0.325-0.691-3.092-1.079-3.092-1.079-0.99 0.09-2.338-1.979-2.338-1.979l0.719-5.216 0.565-2.813c-0.124 1.124 2.673 5.241 3.752 6.95S35.295 81.446 35.295 81.446zM72.027 64.438c0.359 0.06 1.605 5.873 1.823 6.771 0.218 0.9 0.501 3.598 0 4.257 0 0 0.338 0.54 1.297 0.6 0.3 0.899 1.435 2.459 1.435 2.459s0.064 0.659-1.614-0.84c-0.419-0.061-2.158 0.72-3.357-0.359h-1.258c0 0-0.721-1.799 0-4.497 0.403-1.517 0.471-1.498 1.498-6.475L72.027 64.438z" fill="white"></path></svg></g></svg></g></svg></g></svg></g></svg></g><g></g></svg></g><defs><mask></mask></defs></svg><rect width="95.481" height="73.80514732514162" fill="black" stroke="none" visibility="hidden"></rect></g></mask><linearGradient x1="0.054" x2="0.941" y1="0.5" y2="0.5" id="eae05153-4449-47f7-9ff8-b32a0ed3b795"><stop stop-color="#0f3054" offset="0"></stop><stop stop-color="#3b8dcb" offset="0.498"></stop><stop stop-color="#0f3054" offset="1"></stop></linearGradient><rect width="95.481" height="73.80514732514162" fill="#ffffff" mask="url(#3b663135-4432-4677-a67a-8e0beafe5fb9)" data-fill-palette-color="accent"></rect></svg><rect width="95.481" height="73.80514732514162" fill="none" stroke="none" visibility="hidden"></rect></g></svg></g></svg>